<svg version="1.1" id="Layer_1" xmlns="http://www.w3.org/2000/svg" xmlns:xlink="http://www.w3.org/1999/xlink" x="0px" y="0px"
	 width="100%" viewBox="0 0 800 800" enable-background="new 0 0 800 800" xml:space="preserve">
<path fill="#000000" opacity="1.000000" stroke="none" 
	d="
M554.686646,303.328766 
	C573.651245,324.169006 584.724487,348.448059 588.302673,375.863617 
	C593.556580,416.118591 585.196411,453.355133 560.555542,486.063782 
	C546.492432,504.731323 528.540771,519.432495 509.017487,532.159607 
	C504.382538,535.181152 499.192261,537.339966 493.510376,536.803894 
	C485.590698,536.056641 480.858429,531.385498 479.043762,523.204834 
	C477.694946,517.124268 481.080322,509.565033 487.263153,505.723083 
	C493.208527,502.028687 499.229279,498.463348 504.723450,494.103943 
	C532.722778,471.887848 549.335754,443.153473 554.806885,407.771667 
	C557.796936,388.435089 553.745117,370.383850 546.170105,352.882172 
	C541.197937,341.394318 535.220154,330.431274 526.887329,320.897095 
	C525.150452,318.909760 523.755981,318.508575 521.358276,319.586365 
	C498.272766,329.963226 474.201141,338.009644 451.433014,349.143311 
	C449.823425,349.930450 447.919281,350.286072 446.753601,352.694580 
	C456.117279,360.345490 467.533630,362.674500 478.729187,364.401978 
	C479.507660,366.450348 478.430603,367.157257 477.594788,367.909760 
	C462.500183,381.499512 444.688934,388.593231 424.653473,391.495361 
	C380.565887,397.881348 341.278503,414.301025 311.331970,448.758423 
	C296.889954,465.375885 289.518188,485.101166 287.270508,506.862274 
	C287.139832,508.127350 287.461060,509.608826 285.924316,510.326385 
	C284.716675,510.337616 284.176270,509.427490 283.589294,508.651031 
	C260.129059,477.617096 245.289474,443.106079 240.491440,404.278534 
	C236.491302,371.908051 238.424500,340.272064 249.677353,309.450989 
	C262.545715,274.205048 284.844574,246.217911 315.365601,224.728546 
	C345.810242,203.292969 380.000885,189.837494 415.217163,178.660721 
	C444.384155,169.403854 474.421661,163.084427 503.256439,152.738235 
	C523.015991,145.648315 541.519653,136.259171 556.462463,121.035759 
	C570.059387,107.183556 576.801392,90.095947 579.677490,71.219818 
	C579.973877,69.274734 580.475281,67.360901 581.037537,64.692139 
	C583.886963,67.665840 584.982910,70.880463 586.288025,73.933189 
	C593.921509,91.788353 598.362732,110.403122 600.519714,129.718445 
	C603.727600,158.444458 602.171997,186.798477 595.140015,214.793335 
	C587.669739,244.532700 571.198608,268.714020 548.404663,288.844788 
	C547.406006,289.726776 546.394348,290.596252 545.434509,291.519104 
	C545.087769,291.852509 544.875488,292.325745 544.469116,292.933929 
	C546.559937,297.485016 551.472900,299.356537 554.686646,303.328766 
M383.378998,253.910187 
	C381.964478,254.789154 380.527283,255.633835 379.138763,256.552155 
	C350.555450,275.455963 324.723450,297.250397 305.990570,326.453308 
	C285.417389,358.525085 274.714691,393.516846 275.458679,431.734467 
	C275.575012,437.709839 275.647095,443.914307 278.106628,449.872223 
	C280.911285,448.120819 281.149323,445.522858 281.757904,443.166168 
	C288.123779,418.515167 294.980011,394.056366 305.490692,370.731567 
	C318.124023,342.696228 334.521790,317.336426 355.642365,294.861237 
	C378.528107,270.507690 405.971161,252.456070 434.414276,235.620880 
	C445.468933,229.077774 456.952362,223.248367 467.398773,215.606888 
	C438.757782,226.432800 410.490204,238.020081 383.378998,253.910187 
z"/>
<path fill="#000000" opacity="1.000000" stroke="none" 
	d="
M375.589142,694.322693 
	C359.813019,651.559021 334.320007,615.760071 302.016846,584.532837 
	C300.820953,583.376770 299.687744,582.151489 298.579407,580.910278 
	C297.383636,579.571106 297.347046,578.260803 298.811066,577.033386 
	C315.198456,563.294373 323.948700,544.482910 332.247101,525.574097 
	C340.219116,507.408966 345.472443,488.332153 348.866638,468.739655 
	C349.726044,463.778961 347.512512,459.658447 346.618042,455.193695 
	C345.410431,449.166046 343.496185,443.389008 346.412628,437.201477 
	C349.617493,430.402039 354.927673,426.812866 362.086731,426.741150 
	C385.915833,426.502380 409.748718,426.647339 433.580170,426.640503 
	C435.091492,426.640076 436.544525,426.744110 437.912415,427.549225 
	C448.590088,433.834564 449.839447,451.143127 439.743866,458.224518 
	C436.225647,460.692352 435.485229,462.917847 436.443756,466.809418 
	C444.320312,498.787231 456.630463,528.794983 475.715607,555.804077 
	C481.397095,563.844482 488.126770,570.967163 495.913757,576.906372 
	C494.726410,580.216492 491.987946,581.475952 490.022156,583.411499 
	C450.414307,622.409668 422.211365,668.326111 406.091888,721.582642 
	C403.844421,729.008057 403.532959,729.668213 399.756256,732.194397 
	C399.531708,727.693970 399.128601,723.479370 399.141113,719.265991 
	C399.261230,678.774292 399.495087,638.282898 399.540802,597.791199 
	C399.544556,594.460876 400.749298,592.746887 403.501923,591.157532 
	C410.935638,586.865479 414.025360,579.123779 411.633087,571.720764 
	C409.011841,563.609253 401.589478,558.645264 393.232208,559.414429 
	C385.392151,560.136047 378.544922,566.683960 377.437500,574.518738 
	C376.512421,581.063416 380.495422,588.113281 387.788330,591.814331 
	C390.412415,593.146057 391.378998,594.590820 391.373688,597.480225 
	C391.293762,640.976257 391.316406,684.472473 391.297607,727.968689 
	C391.297058,729.268677 391.107574,730.568542 390.974396,732.275696 
	C386.356995,731.544434 385.574463,727.976013 384.738586,724.791504 
	C382.076782,714.650024 379.281097,704.556519 375.589142,694.322693 
z"/>
</svg>